<svg version="1.1" viewBox="0 0 48 48" xmlns="http://www.w3.org/2000/svg" xmlns:xlink="http://www.w3.org/1999/xlink"><path d="m3.1944 8.2357c0-1.3264 0.95027-2.1944 2.3654-2.7344s1.7639-0.8068 1.7639-1.5177l1.7092 0.16404c1e-7 1.3261-1.1553 2.1944-2.5023 2.6797s-1.627 0.83432-1.627 1.5314z" fill="#fff" style="display:none;fill-rule:evenodd;stroke-width:.17639"/><path d="m12.073 31.127c0-5.0132 3.5916-8.2938 8.9401-10.335 5.3485-2.0409 6.6667-3.0493 6.6667-5.7362l6.46 0.61999c0 5.012-4.3665 8.2938-9.4575 10.128s-6.1493 3.1533-6.1493 5.788z" fill="#fff" style="display:none;fill-rule:evenodd;stroke-width:.66667"/><path d="m15.624 1.8224c-9.1875 0-14.937 5.1883-14.937 12.126 0 6.0621 4.4375 9.749 11.438 12.249 5.3138 1.9376 7.4366 3.8129 7.4366 6.9996 0 3.4374-2.7497 5.7499-7.6256 5.7499-3.9374 0-7.748-1.249-10.186-2.686l-1.7505 6.3759c1.1563 0.71885 6.9383 2.686 11.438 2.686 9.2485 0 14.322-4.3019 15.601-9.8084h6.3972v8.8044h5.7593v-8.8044h8.8044v-5.7593h-8.8044v-8.802l-5.7593-0.0024v8.8044h-6.3712c-0.99354-4.4004-4.429-7.3359-10.501-9.6194-5.6264-2.1876-8.065-3.6884-8.065-6.9381 0-2.4997 2.0629-5.0625 6.9381-5.0625 3.9374 0 6.8743 1.1874 8.4358 1.9985l1.8143-6.1869c-2.1876-1.1256-5.4999-2.1237-10.063-2.1237z" style="fill-rule:evenodd;fill:#ff520e;stroke-width:.80634"/></svg>
