<svg version="1.1" viewBox="0 0 48 48" xmlns="http://www.w3.org/2000/svg" xmlns:xlink="http://www.w3.org/1999/xlink"><defs><filter id="b" style="color-interpolation-filters:sRGB"><feFlood flood-color="rgb(180,18,18)" result="flood"/><feComposite in="SourceGraphic" in2="flood" operator="in" result="composite1"/><feGaussianBlur in="composite1" result="blur" stdDeviation="0.4"/><feOffset dx="0" dy="0" result="offset"/><feComposite in="SourceGraphic" in2="offset" result="composite2"/></filter><linearGradient id="a" x1="8.8131" x2="3.1941" y1="1.9438" y2="10.407" gradientTransform="matrix(3.7795 0 0 3.7795 -7.9142 0)" gradientUnits="userSpaceOnUse"><stop stop-color="#FF840E" offset="0"/><stop stop-color="#FF710E" offset=".08431"/><stop stop-color="#F00" offset=".73477"/><stop stop-color="#F10A00" offset="1"/></linearGradient></defs><path d="m3.1944 8.2357c0-1.3264 0.95027-2.1944 2.3654-2.7344s1.7639-0.8068 1.7639-1.5177l1.7092 0.16404c1e-7 1.3261-1.1553 2.1944-2.5023 2.6797s-1.627 0.83432-1.627 1.5314z" fill="#fff" style="display:none;fill-rule:evenodd;stroke-width:.17639"/><rect width="48" height="48" rx="4" ry="4" style="stroke-width:.5"/><path d="m12.073 31.127c0-5.0132 3.5916-8.2938 8.9401-10.335 5.3485-2.0409 6.6667-3.0493 6.6667-5.7362l6.46 0.61999c0 5.012-4.3665 8.2938-9.4575 10.128s-6.1493 3.1533-6.1493 5.788z" fill="#fff" style="display:none;fill-rule:evenodd;stroke-width:.66667"/><path d="m17.075 5.5898c-7.5961 0-12.35 4.2896-12.35 10.025 0 5.012 3.6688 8.0603 9.457 10.127 4.3933 1.602 6.1484 3.1525 6.1484 5.7871 0 2.842-2.2734 4.7539-6.3047 4.7539-3.2553 0-6.4059-1.0327-8.4219-2.2207l-1.4473 5.2715c0.95599 0.59433 5.7365 2.2207 9.457 2.2207 7.6465 0 11.841-3.5567 12.898-8.1094h5.2891v7.2793h4.7617v-7.2793h7.2793v-4.7617h-7.2793v-7.2773l-4.7617-2e-3v7.2793h-5.2676c-0.82144-3.6382-3.6618-6.0652-8.6816-7.9531-4.6518-1.8087-6.668-3.0495-6.668-5.7363 0-2.0667 1.7056-4.1855 5.7363-4.1855 3.2553 0 5.6835 0.9817 6.9746 1.6523l1.5-5.1152c-1.8087-0.93062-4.5472-1.7558-8.3203-1.7558z" style="fill-rule:evenodd;fill:url(#a);filter:url(#b);stroke-width:.66667"/></svg>
